# xmcd CD database file generated by Grip 3.0.7
# 
# Track frame offsets:
#       150
#       22005
#       38800
#       52992
#       69060
#       93662
#       116427
#       141042
#       157160
#       170890
#       182055
#       193702
#       219345
#       234520
# 
# Disc length: 3331 seconds
# 
# Revision: 3
# Processed by: cddbd v1.4PL0 Copyright (c) Steve Scherf et al.
# Submitted via: Grip 3.0.7
# 
DISCID=c20d010e
DTITLE=Vargas Blues Band - Chill Latin Blues
DYEAR=2003
DGENRE=Blues
TTITLE0=Other Vision
TTITLE1=Wahabu
TTITLE2=Erika
TTITLE3=Vivir El Alba
TTITLE4=Buenos Aires Blues
TTITLE5=Night Club
TTITLE6=Blues Latino
TTITLE7=Flower Power
TTITLE8=Brother
TTITLE9=Cry For Love
TTITLE10=Mojo Man
TTITLE11=Del Sur
TTITLE12=Spanish Fly
TTITLE13=Blues Hondo
EXTD=
EXTT0=
EXTT1=
EXTT2=
EXTT3=
EXTT4=
EXTT5=
EXTT6=
EXTT7=
EXTT8=
EXTT9=
EXTT10=
EXTT11=
EXTT12=
EXTT13=
PLAYORDER=
